# xmcd CD database file
#
# Track frame offsets:
#	150
#	13854
#	33293
#	51074
#	69035
#	83098
#	102483
#	115071
#	127496
#	139230
#	152601
#	167487
#
# Disc length: 2425 seconds
#
# Revision: 0
# Processed by: cddbd v1.5.1PL0 Copyright (c) Steve Scherf et al.
# Submitted via: NeoAudio 9.9.9
#
DISCID=9909770c
DTITLE=Gary Allen - Smoke rings in the dark
DYEAR=1900
DGENRE=Country
TTITLE0=Right where I need to be
TTITLE1=Smoke rings in the dark
TTITLE2=Don't tell Mama
TTITLE3=Lovin' you against my will
TTITLE4=Sorry
TTITLE5=Crying for nothing
TTITLE6=Bourbon borderline
TTITLE7=Runaway
TTITLE8=Learning to live with me
TTITLE9=Cowboy blues
TTITLE10=I'm the one
TTITLE11=Greenfields
EXTD=
EXTT0=
EXTT1=
EXTT2=
EXTT3=
EXTT4=
EXTT5=
EXTT6=
EXTT7=
EXTT8=
EXTT9=
EXTT10=
EXTT11=
PLAYORDER=
